HIERARCHY
ROOT root
{
	OFFSET 0.000000 0.000000 0.000000
	CHANNELS 6 Xposition Yposition Zposition Zrotation Yrotation Xrotation
	JOINT lhip
	{
		OFFSET 0.058581 -0.082280 -0.017664
		CHANNELS 3 Zrotation Yrotation Xrotation
		JOINT lknee
		{
			OFFSET 0.043451 -0.386469 0.008037
			CHANNELS 3 Zrotation Yrotation Xrotation
			JOINT lankle
			{
				OFFSET -0.014790 -0.426874 -0.037428
				CHANNELS 3 Zrotation Yrotation Xrotation
				JOINT ltoe
				{
					OFFSET 0.041054 -0.060286 0.122042
					CHANNELS 3 Zrotation Yrotation Xrotation
					End Site
					{
						OFFSET 0.000000 0.000000 0.000000
					}
				}
			}
		}
	}
	JOINT rhip
	{
		OFFSET -0.060310 -0.090513 -0.013543
		CHANNELS 3 Zrotation Yrotation Xrotation
		JOINT rknee
		{
			OFFSET -0.043257 -0.383688 -0.004843
			CHANNELS 3 Zrotation Yrotation Xrotation
			JOINT rankle
			{
				OFFSET 0.019056 -0.420046 -0.034562
				CHANNELS 3 Zrotation Yrotation Xrotation
				JOINT rtoe
				{
					OFFSET -0.034840 -0.062106 0.130323
					CHANNELS 3 Zrotation Yrotation Xrotation
					End Site
					{
						OFFSET 0.000000 0.000000 0.000000
					}
				}
			}
		}
	}
	JOINT lowerback
	{
		OFFSET 0.004439 0.124404 -0.038385
		CHANNELS 3 Zrotation Yrotation Xrotation
		JOINT upperback
		{
			OFFSET 0.004488 0.137956 0.026820
			CHANNELS 3 Zrotation Yrotation Xrotation
			JOINT chest
			{
				OFFSET -0.002265 0.056032 0.002855
				CHANNELS 3 Zrotation Yrotation Xrotation
				JOINT lowerneck
				{
					OFFSET -0.013390 0.211636 -0.033468
					CHANNELS 3 Zrotation Yrotation Xrotation
					JOINT upperneck
					{
						OFFSET 0.010113 0.088937 0.050410
						CHANNELS 3 Zrotation Yrotation Xrotation
						End Site
						{
							OFFSET 0.000000 0.000000 0.000000
						}
					}
				}
				JOINT lclavicle
				{
					OFFSET 0.071702 0.114000 -0.018898
					CHANNELS 3 Zrotation Yrotation Xrotation
					JOINT lshoulder
					{
						OFFSET 0.122921 0.045205 -0.019046
						CHANNELS 3 Zrotation Yrotation Xrotation
						JOINT lelbow
						{
							OFFSET 0.255332 -0.015649 -0.022946
							CHANNELS 3 Zrotation Yrotation Xrotation
							JOINT lwrist
							{
								OFFSET 0.265709 0.012698 -0.007375
								CHANNELS 3 Zrotation Yrotation Xrotation
								End Site
								{
									OFFSET 0.000000 0.000000 0.000000
								}
							}
						}
					}
				}
				JOINT rclavicle
				{
					OFFSET -0.082954 0.112472 -0.023707
					CHANNELS 3 Zrotation Yrotation Xrotation
					JOINT rshoulder
					{
						OFFSET -0.113228 0.046853 -0.008472
						CHANNELS 3 Zrotation Yrotation Xrotation
						JOINT relbow
						{
							OFFSET -0.260127 -0.014369 -0.031269
							CHANNELS 3 Zrotation Yrotation Xrotation
							JOINT rwrist
							{
								OFFSET -0.269108 0.006794 -0.006027
								CHANNELS 3 Zrotation Yrotation Xrotation
								End Site
								{
									OFFSET 0.000000 0.000000 0.000000
								}
							}
						}
					}
				}
			}
		}
	}
}
MOTION
Frames: 8
Frame Time: 0.033333
1.459507 0.345651 0.997530 -25.958426 -0.771561 100.456746 15.557080 15.598425 -2.593277 1.727564 12.874105 -2.531502 6.122482 35.584791 3.851555 0.000000 -0.000000 0.000000 4.941082 3.837809 -29.785810 0.940955 0.663342 24.750789 -2.691072 -24.832765 -3.155203 0.000000 -0.000000 0.000000 -8.706500 0.746253 -1.686154 2.789333 2.192058 4.165468 0.146940 1.703731 -8.615743 2.926649 -13.726252 -4.301067 8.310254 -12.518056 -9.357221 -7.581728 4.332669 -11.846378 0.758531 -15.259764 -7.360365 8.238068 -3.155123 15.934432 -8.180077 26.593882 43.459167 14.813690 -1.400235 -12.481837 9.488423 20.969719 -13.360385 -8.554445 -12.893751 0.952780 1.440451 -20.519059 24.347978 
1.429599 0.352153 1.042402 -27.880266 -1.249861 100.582940 8.755133 12.445490 -3.228980 0.017470 12.027531 -3.408256 7.039417 33.377351 8.328851 0.000000 -0.000000 0.000000 7.131399 2.411070 -24.479434 -0.946783 2.292214 14.042819 -1.446041 -21.791952 11.783686 0.000000 -0.000000 0.000000 -9.957536 1.963714 -2.328963 3.100015 1.630285 4.390444 0.510685 1.905842 -9.136285 2.525977 -15.231642 -0.592455 9.741572 -10.310271 -9.964883 -7.056935 4.451198 -10.261890 0.935913 -14.813147 -5.387321 7.892604 -1.550649 14.526675 -8.006185 23.905238 41.292725 13.119862 -3.297482 -12.863436 9.860245 19.434756 -12.725485 -8.621292 -12.993453 -2.060585 1.482721 -18.763534 24.968644 
1.402880 0.358932 1.085376 -29.512568 -0.819969 100.702038 2.929754 10.424288 -5.165325 -0.826368 10.793095 -3.261351 4.231160 28.202750 12.730989 0.000000 -0.000000 0.000000 8.757684 0.689214 -21.141310 -2.998104 -0.247210 5.646152 3.346998 -17.697464 28.873893 0.000000 -0.000000 0.000000 -9.536103 2.818279 -3.591035 3.517744 1.120484 6.485160 0.428778 2.216971 -11.146743 1.269985 -14.764773 3.577569 11.171059 -9.230755 -10.543291 -6.607905 3.013168 -7.569877 0.267860 -12.986685 -2.822923 7.691108 -0.915013 12.040327 -9.683384 21.422559 38.084815 11.708543 -2.482103 -9.627904 7.702916 16.623967 -14.382032 -6.803782 -15.269346 -9.371272 1.237196 -16.623501 25.939819 
1.372616 0.367753 1.119641 -32.087278 0.012126 101.643564 -2.694580 7.238189 -8.118698 -1.739702 13.872856 -3.957050 1.243278 22.715758 19.716296 0.000000 -0.000000 0.000000 8.790425 -0.658858 -19.619994 -3.738321 -4.770123 0.237203 14.460412 -14.271444 38.516030 0.000000 -0.000000 0.000000 -7.806229 3.272919 -5.727046 4.022489 0.672645 7.793195 0.511003 2.160765 -11.798079 -0.466647 -13.234056 7.502921 11.299513 -8.352015 -10.906152 -5.374188 2.980487 -5.267088 -2.957578 -11.801789 -1.438397 8.938422 0.592417 8.577151 -11.903295 18.272985 38.155090 9.692598 -0.825461 -3.253046 5.589676 15.610565 -16.318014 -6.398718 -18.368318 -17.403765 2.291048 -13.627027 26.900196 
1.354816 0.374832 1.129450 -34.109641 1.556621 102.026726 -3.969773 6.498377 -9.531911 -2.512709 14.204727 -4.209851 0.180617 21.873043 21.216514 0.000000 -0.000000 0.000000 8.954387 -0.072108 -21.001481 -2.975953 -3.651968 2.385016 14.752585 -13.127005 38.598577 0.000000 -0.000000 0.000000 -5.589372 3.633136 -6.034685 4.342447 1.111161 7.654618 0.631336 2.591162 -11.443299 -0.806197 -12.732102 7.930479 10.413254 -7.877486 -10.184706 -5.411643 2.561965 -5.600517 -4.422592 -11.220511 -0.926080 9.488753 0.738086 7.848480 -11.640113 17.709411 37.676311 8.571959 -0.439869 -2.500056 4.673002 14.270488 -16.448530 -5.609998 -17.170427 -19.106030 2.618942 -12.915836 25.307034 
1.332220 0.383999 1.130980 -37.048080 3.438828 101.152974 -4.931555 5.600358 -9.822392 -2.933575 12.864101 -4.054995 -0.292292 21.949300 19.270011 0.000000 -0.000000 0.000000 8.054211 1.512105 -22.743031 -2.449503 -2.112432 6.843858 11.279103 -13.954188 40.491957 0.000000 -0.000000 0.000000 -2.712756 3.641851 -4.428441 4.879798 1.796938 6.605930 0.594062 3.498836 -10.178484 -0.539798 -12.080183 7.431072 8.218517 -7.025959 -9.153191 -5.617604 3.342999 -7.060443 -6.375481 -11.166050 -0.436771 10.291249 -0.386382 8.983023 -9.792354 16.509454 37.022637 8.416742 -0.746350 -4.193906 3.162276 14.701953 -17.049663 -6.547393 -16.718000 -18.026385 0.369074 -12.311643 27.419850 
1.307038 0.392184 1.120350 -39.083520 4.621284 99.576361 -5.910732 4.966142 -9.440141 -2.613030 11.709198 -3.542086 0.178747 23.807810 18.714455 0.000000 -0.000000 0.000000 5.993352 1.858363 -23.685137 -2.802207 -2.761044 8.817570 7.237201 -15.927776 39.649612 0.000000 -0.000000 0.000000 -0.843589 3.702342 -2.126023 5.155947 2.168687 5.954225 0.769284 3.860688 -8.909440 -0.262052 -11.728944 6.966050 7.454035 -5.416491 -8.709375 -6.649031 3.443028 -8.332031 -6.496016 -10.544906 -0.452715 10.121297 -1.514553 9.565556 -6.499740 14.229281 35.713723 9.076011 -1.319811 -6.825256 1.823083 15.082764 -17.882311 -6.873639 -16.852278 -16.120456 -3.079083 -10.759718 29.986755 
1.281695 0.399690 1.099299 -40.363615 5.079517 98.449294 -7.447973 5.249686 -9.060193 -2.163992 11.093414 -3.104155 3.152100 26.986440 17.107556 0.000000 -0.000000 0.000000 3.505429 -0.009897 -24.095605 -4.443912 -4.604062 7.245900 5.504829 -18.073888 36.932544 0.000000 -0.000000 0.000000 0.391888 3.724811 -0.414616 5.024415 2.041333 4.866788 0.921993 4.171463 -7.717578 -1.208988 -12.449799 7.563015 7.977263 -3.159711 -8.852243 -8.415900 2.956690 -8.469418 -5.070058 -10.082100 -1.481158 9.395885 -2.343728 9.051690 -3.030708 13.942527 34.575226 9.807678 -1.908066 -7.936778 1.350771 13.491962 -18.985862 -6.027409 -14.571499 -15.275424 -6.111598 -11.052947 32.863527 
